<svg id="Layer_1" data-name="Layer 1" xmlns="http://www.w3.org/2000/svg" viewBox="0 0 136.65 105.08"><defs><style>.cls-1{fill:#00dcad;}</style></defs><polygon class="cls-1" points="115.32 38.35 115.32 85.88 98.54 102.75 98.54 55.22 115.32 38.35"/><polygon class="cls-1" points="36.72 88.3 20.03 105.08 2.52 105.08 19.2 88.3 36.72 88.3"/><path class="cls-1" d="M19,20.87c-.12.33-.24.65-.34,1-.24.71-.45,1.43-.64,2.15a36.72,36.72,0,0,0-1.28,9.63V85.91L0,102.78v-49A33.73,33.73,0,0,1,2.92,40.08h0a33.61,33.61,0,0,1,8.42-11.46Z"/><polygon class="cls-1" points="66.06 37.54 66.06 85.92 49.28 102.79 49.27 54.42 66.06 37.54"/><path class="cls-1" d="M136.64,32.87c-.81-29.36-35.9-43.69-57-23.34l-1.17,1.16L77.24,9.53C57.76-9.42,24.8,1.53,20.6,28.4c-.75,1.17-.36,53.86-.38,56.5,0,0,17.9,0,17.91,0V33.37a15.66,15.66,0,0,1,31.31.25V84.9s17.91,0,17.93,0,0-51.28,0-51.28a14.4,14.4,0,0,1,.11-1.86,15.63,15.63,0,0,1,6-10.57c10-7.89,25.1-.56,25.19,12.18V84.9s18,0,17.94,0V33.62C136.65,33.36,136.65,33.12,136.64,32.87Z"/><polygon class="cls-1" points="20.22 84.9 20.18 84.9 20.18 84.87 20.22 84.9"/><path class="cls-1" d="M24,18.05l-.37.74c.12-.25.24-.5.37-.74Z"/><path class="cls-1" d="M25.42,15.59c-.51.8-1,1.62-1.42,2.46C24.43,17.21,24.91,16.39,25.42,15.59Z"/><polygon class="cls-1" points="85.99 88.3 69.31 105.08 51.8 105.08 68.49 88.3 85.99 88.3"/><polygon class="cls-1" points="135.25 88.3 118.57 105.08 101.02 105.08 117.71 88.3 135.25 88.3"/><path class="cls-1" d="M66.06,32.66v.05L48.88,50v.13a15.63,15.63,0,0,0-3.48-6.69,15.92,15.92,0,0,0-3.9-3.21V32.35a14.29,14.29,0,0,1,.26-1.48,12.25,12.25,0,0,1,9.41-9.3,3.41,3.41,0,0,1,.48-.09,11.4,11.4,0,0,1,2.13-.19,12.37,12.37,0,0,1,7.43,2.49,11.93,11.93,0,0,1,1.58,1.43c.3.33.59.67.86,1A11.9,11.9,0,0,1,66.06,32.66Z"/><path class="cls-1" d="M115.32,33.52,98.23,50.7h0A15.65,15.65,0,0,0,90.8,40.28V33.62a12.55,12.55,0,0,1,.31-2.76,12.33,12.33,0,0,1,5.54-7.71,12.12,12.12,0,0,1,3.85-1.55l.48-.08a10.92,10.92,0,0,1,2.07-.18A12.28,12.28,0,0,1,115.32,33.52Z"/></svg>